<?xml version="1.0" standalone="no"?>
<!DOCTYPE svg PUBLIC "-//W3C//DTD SVG 20010904//EN"
 "http://www.w3.org/TR/2001/REC-SVG-20010904/DTD/svg10.dtd">
<svg version="1.0" xmlns="http://www.w3.org/2000/svg"
 width="260.000000pt" height="260.000000pt" viewBox="0 0 260.000000 260.000000"
 preserveAspectRatio="xMidYMid meet">
<metadata>
Created by potrace 1.11, written by Peter Selinger 2001-2013
</metadata>
<g transform="translate(0.000000,260.000000) scale(0.100000,-0.100000)"
fill="#000000" stroke="none">
<path d="M0 1300 l0 -1300 1300 0 1300 0 0 1300 0 1300 -1300 0 -1300 0 0
-1300z m1441 1044 c129 -128 137 -139 132 -169 -5 -29 -1 -34 43 -63 209 -134
309 -410 236 -647 -39 -125 -119 -237 -221 -306 -27 -19 -52 -43 -55 -54 -3
-12 -51 -63 -106 -114 -83 -77 -100 -98 -100 -122 0 -16 3 -29 6 -29 4 0 59
28 123 61 l116 62 105 140 c127 170 189 278 232 405 27 81 32 112 32 187 -1
120 -21 168 -144 353 -54 81 -97 148 -95 150 2 2 34 -6 72 -18 115 -37 200
-88 294 -177 96 -92 125 -145 154 -285 19 -88 19 -275 0 -353 -20 -86 -78
-207 -133 -279 -54 -70 -351 -409 -363 -414 -4 -2 -31 38 -60 87 -29 50 -58
91 -63 91 -10 0 -216 -120 -216 -125 0 -10 191 -104 222 -109 40 -7 78 -45 78
-78 0 -32 -29 -77 -60 -93 -66 -34 -154 -2 -176 64 -7 23 -25 41 -60 62 -27
16 -52 29 -56 29 -5 0 -8 -25 -8 -55 0 -43 3 -55 16 -55 8 0 29 -13 45 -29 53
-54 33 -148 -44 -205 -40 -29 -134 -29 -173 0 -52 38 -69 71 -69 131 0 48 4
58 28 79 15 13 37 24 48 24 17 0 19 7 19 60 0 33 -2 60 -5 60 -17 0 -118 -66
-122 -79 -14 -45 -32 -66 -72 -84 -37 -16 -50 -18 -82 -8 -68 21 -110 98 -76
142 15 20 70 49 93 49 9 0 56 21 105 47 l88 47 -106 63 c-59 35 -110 63 -113
63 -3 0 -26 -37 -53 -83 -26 -45 -51 -88 -55 -95 -6 -9 -58 43 -173 175 -213
243 -248 290 -292 393 -49 112 -56 153 -57 291 0 221 51 362 172 473 39 37
101 84 137 104 64 36 220 96 228 89 2 -3 -43 -74 -100 -158 -119 -179 -142
-235 -142 -354 1 -164 86 -351 271 -594 l102 -133 118 -64 c66 -35 122 -64
127 -64 4 0 7 12 7 28 0 21 -22 48 -110 133 -60 58 -110 112 -110 120 0 8 -23
29 -51 48 -244 166 -318 510 -164 766 44 72 113 145 178 187 44 28 48 34 44
62 -5 29 5 41 131 169 75 75 139 137 142 137 2 0 66 -61 141 -136z"/>
<path d="M1545 2007 c-17 -51 -17 -443 0 -604 9 -87 19 -160 21 -162 2 -2 30
23 62 56 150 150 183 363 86 554 -26 53 -89 127 -135 160 -27 19 -27 19 -34
-4z"/>
<path d="M977 1971 c-190 -180 -195 -479 -11 -669 42 -43 57 -53 66 -44 16 16
26 738 10 754 -7 7 -27 -5 -65 -41z"/>
</g>
</svg>
